<svg xmlns:xlink="http://www.w3.org/1999/xlink" xmlns="http://www.w3.org/2000/svg" version="1.1" id="Layer_1" x="0" y="0" viewBox="0 0 141 30.6" xml:space="preserve" width="141"  height="30.6" ><style>.st0{fill:#DC4452}</style><path class="st0" d="M58.2 20.6c.9.9 2.3.8 3.2-.1l2.4-2.4c.9-.9 1-2.4.1-3.2-.8-.9-2.3-.9-3.2.1l-2.4 2.4c-.9.9-1 2.3-.1 3.2 0 0-.9-.9 0 0z"/><path class="st0" d="M61.3 23.7c.9.9 2.3.8 3.2-.1l2.4-2.4c.9-.9 1-2.4.1-3.2-.9-.9-2.3-.8-3.2.1l-2.4 2.4c-.9.9-.9 2.4-.1 3.2 0 0-.8-.8 0 0zm3.2 3.2c.9.9 2.3.8 3.2-.1l2.4-2.4c.9-.9 1-2.4.1-3.2-.9-.9-2.3-.8-3.2.1l-2.4 2.4c-.9.9-1 2.3-.1 3.2 0 0-.9-.9 0 0z"/><path class="st0" d="M67.6 30c.9.9 2.3.8 3.2-.1l2.4-2.4c.9-.9 1-2.4.1-3.2-.9-.9-2.3-.8-3.2.1l-2.4 2.4c-.9.9-1 2.4-.1 3.2 0 0-.9-.8 0 0zM69 3.1c3.9-3.9 10.2-3.9 14.1 0s3.9 10.2 0 14.1L71.8 5.9 68.7 9s-3.7 3.7-6.5.8L69 3.1z"/><path class="st0" d="M83.3 16.8L72.1 5.6l-.5.5 11.1 11.1c.8.8.8 2 .1 2.7-.3.3-.8.5-1.3.5s-1-.2-1.4-.6l-6.7-6.7-.5.5 6.7 6.7c.8.8.8 2 .1 2.7-.3.3-.8.5-1.3.5s-1-.2-1.4-.6l-6.7-6.7-.5.5 6.7 6.7c.8.8.8 2 .1 2.7-.3.3-.8.5-1.3.5s-1-.2-1.4-.6l-6.7-6.7-.5.7 6.7 6.7c.5.5 1.2.8 1.9.8s1.4-.2 1.9-.7c.7-.7.9-1.6.6-2.5.2.1.4.1.6.1.7 0 1.4-.2 1.9-.7.7-.7.9-1.6.6-2.5.2.1.4.1.6.1.7 0 1.4-.2 1.9-.7 1-1.1 1-2.8-.1-3.8zM73.2 4.6l.5-.5-1-1c-4-4-10.6-4-14.6 0-2 2-3 4.6-3 7.3 0 2.8 1.1 5.4 3 7.3l.5-.5c-1.8-1.8-2.8-4.2-2.8-6.8 0-2.6 1-5 2.8-6.8 3.7-3.7 9.8-3.7 13.6 0l1 1z"/><path d="M43 15.6H0m141 .5H98" fill="none" stroke="#f0f0f0" stroke-miterlimit="10"/></svg>